<svg width="13" height="15" viewBox="0 0 13 15" fill="none" xmlns="http://www.w3.org/2000/svg">
<g clip-path="url(#clip0)">
<path d="M0.621994 5.31289C-0.624857 7.43318 0.167788 10.6508 1.5466 12.6017C2.23484 13.5771 2.93164 14.4527 3.88603 14.4527C3.90402 14.4527 3.92206 14.4523 3.94053 14.4516C4.38893 14.4341 4.71296 14.2988 5.02626 14.1681C5.378 14.0211 5.74177 13.8693 6.31238 13.8693C6.85523 13.8693 7.20162 14.0162 7.53663 14.1583C7.86681 14.2983 8.20687 14.4431 8.70941 14.4338C9.78444 14.4142 10.4445 13.4695 11.0268 12.636C11.6345 11.7658 11.9393 10.9208 12.0422 10.5979L12.0464 10.5851C12.0659 10.5277 12.0383 10.4651 11.9821 10.4398C11.9806 10.4391 11.9749 10.4368 11.9733 10.4361C11.784 10.3602 10.1234 9.63834 10.1059 7.67068C10.0897 6.07211 11.3517 5.22556 11.6047 5.07213L11.6166 5.06493C11.644 5.04763 11.6631 5.02019 11.6696 4.98882C11.676 4.9575 11.6693 4.9249 11.6509 4.89856C10.7798 3.64938 9.44474 3.46112 8.90719 3.43847C8.82921 3.43084 8.7487 3.427 8.66789 3.427C8.03651 3.427 7.43177 3.66066 6.94587 3.8484C6.6105 3.978 6.32076 4.08992 6.12099 4.08992C5.89646 4.08992 5.60512 3.97663 5.26774 3.84546C4.81658 3.66999 4.30523 3.47117 3.76389 3.47117C3.75098 3.47117 3.73826 3.47131 3.72574 3.47155C2.46704 3.48969 1.27769 4.19535 0.621994 5.31289Z" fill="white"/>
<path d="M8.90845 9.10479e-05C8.14624 0.0305125 7.23187 0.490293 6.68535 1.11758C6.2209 1.64484 5.76719 2.52393 5.88673 3.41004C5.89422 3.46548 5.94025 3.50827 5.99717 3.51258C6.04861 3.51652 6.10116 3.5185 6.15346 3.51855C6.89874 3.51855 7.70277 3.1145 8.25183 2.4639C8.82975 1.77691 9.12196 0.895251 9.03356 0.105524C9.02657 0.0436383 8.97101 -0.00232561 8.90845 9.10479e-05Z" fill="white"/>
</g>
<defs>
<clipPath id="clip0">
<rect width="12.0526" height="14.4526" fill="white"/>
</clipPath>
</defs>
</svg>
