<svg width="20" height="20" viewBox="0 0 20 20" fill="none" xmlns="http://www.w3.org/2000/svg">
<path d="M12.8571 9.55003L12.3625 9.62338L12.8571 9.55003ZM10.45 7.14289L10.3767 7.63748L10.45 7.14289ZM6.42857 3.35718H13.5714V2.35718H6.42857V3.35718ZM13.5714 3.35718C15.2677 3.35718 16.6429 4.7323 16.6429 6.42861H17.6429C17.6429 4.18002 15.82 2.35718 13.5714 2.35718V3.35718ZM16.6429 6.42861V13.5715H17.6429V6.42861H16.6429ZM16.6429 13.5715C16.6429 15.2678 15.2677 16.6429 13.5714 16.6429V17.6429C15.82 17.6429 17.6429 15.8201 17.6429 13.5715H16.6429ZM13.5714 16.6429H6.42857V17.6429H13.5714V16.6429ZM6.42857 16.6429C4.73226 16.6429 3.35714 15.2678 3.35714 13.5715H2.35714C2.35714 15.8201 4.17998 17.6429 6.42857 17.6429V16.6429ZM3.35714 13.5715V6.42861H2.35714V13.5715H3.35714ZM3.35714 6.42861C3.35714 4.7323 4.73226 3.35718 6.42857 3.35718V2.35718C4.17998 2.35718 2.35714 4.18002 2.35714 6.42861H3.35714ZM12.3625 9.62338C12.4353 10.1138 12.3515 10.6147 12.1232 11.0548L13.0108 11.5153C13.336 10.8886 13.4553 10.1752 13.3517 9.47669L12.3625 9.62338ZM12.1232 11.0548C11.8948 11.4948 11.5335 11.8517 11.0906 12.0746L11.5402 12.9678C12.171 12.6504 12.6856 12.1421 13.0108 11.5153L12.1232 11.0548ZM11.0906 12.0746C10.6478 12.2975 10.1459 12.3751 9.65642 12.2963L9.49755 13.2836C10.1947 13.3958 10.9095 13.2853 11.5402 12.9678L11.0906 12.0746ZM9.65642 12.2963C9.16693 12.2176 8.71473 11.9865 8.36415 11.6359L7.65704 12.343C8.15635 12.8423 8.80039 13.1715 9.49755 13.2836L9.65642 12.2963ZM8.36415 11.6359C8.01357 11.2853 7.78246 10.8331 7.7037 10.3436L6.7164 10.5025C6.82858 11.1996 7.15773 11.8437 7.65704 12.343L8.36415 11.6359ZM7.7037 10.3436C7.62493 9.85411 7.70252 9.35224 7.92542 8.90938L7.03218 8.45979C6.71472 9.09053 6.60421 9.80532 6.7164 10.5025L7.7037 10.3436ZM7.92542 8.90938C8.14832 8.46652 8.50519 8.10522 8.94527 7.87688L8.4847 6.98925C7.85792 7.31448 7.34965 7.82905 7.03218 8.45979L7.92542 8.90938ZM8.94527 7.87688C9.38535 7.64853 9.88622 7.56476 10.3767 7.63748L10.5233 6.6483C9.82485 6.54472 9.11148 6.66403 8.4847 6.98925L8.94527 7.87688ZM10.3767 7.63748C10.8769 7.71167 11.34 7.94478 11.6977 8.30238L12.4048 7.59527C11.8954 7.08596 11.2358 6.75395 10.5233 6.6483L10.3767 7.63748ZM11.6977 8.30238C12.0553 8.65998 12.2884 9.12312 12.3625 9.62338L13.3517 9.47669C13.2461 8.7642 12.9141 8.10459 12.4048 7.59527L11.6977 8.30238ZM14.5 5.71432C14.5 5.83267 14.4041 5.92861 14.2857 5.92861V6.92861C14.9563 6.92861 15.5 6.38495 15.5 5.71432H14.5ZM14.2857 5.92861C14.1674 5.92861 14.0714 5.83267 14.0714 5.71432H13.0714C13.0714 6.38495 13.6151 6.92861 14.2857 6.92861V5.92861ZM14.0714 5.71432C14.0714 5.59597 14.1674 5.50003 14.2857 5.50003V4.50003C13.6151 4.50003 13.0714 5.04369 13.0714 5.71432H14.0714ZM14.2857 5.50003C14.4041 5.50003 14.5 5.59597 14.5 5.71432H15.5C15.5 5.04369 14.9563 4.50003 14.2857 4.50003V5.50003Z" fill="#0B2A49"/>
</svg>
