<svg width="13" height="15" viewBox="0 0 13 15" fill="none" xmlns="http://www.w3.org/2000/svg">
<g clip-path="url(#clip0)">
<path d="M11.5077 6.31377L1.65477 0.158914C1.48491 0.0528779 1.29579 0 1.10667 0C1.10282 0 1.09903 0.000561039 1.09525 0.000561039C1.06983 0.000841559 1.04448 0.00224415 1.0192 0.00441818C1.00778 0.0054 0.996417 0.00673245 0.984997 0.00813504C0.965229 0.0105195 0.945527 0.013535 0.925892 0.0171117C0.918768 0.0184441 0.911583 0.018865 0.904459 0.0203377L0.904845 0.0208987C0.78208 0.0456545 0.662265 0.0929223 0.550927 0.163543C0.209911 0.379753 0 0.778023 0 1.20883V13.5185C0 13.9493 0.209911 14.3476 0.550927 14.5638C0.662205 14.6344 0.782014 14.6817 0.904779 14.7065L0.904459 14.707C0.910877 14.7083 0.917356 14.7087 0.923708 14.7099C0.944822 14.7138 0.966001 14.717 0.987241 14.7195C0.997894 14.7208 1.00848 14.722 1.01913 14.7229C1.0441 14.7251 1.069 14.7264 1.09403 14.7267C1.09826 14.7268 1.10243 14.7273 1.10667 14.7273C1.29579 14.7273 1.48491 14.6744 1.65477 14.5684L11.5077 8.41351C11.8522 8.19824 12.0648 7.79797 12.0648 7.36419C12.0648 7.36419 12.0648 7.364 12.0648 7.36394C12.0648 7.36394 12.0648 7.3637 12.0648 7.36364C12.0648 7.36364 12.0648 7.36345 12.0648 7.36333C12.0648 7.36333 12.0648 7.36314 12.0648 7.36308C12.0648 6.92937 11.8522 6.52909 11.5077 6.31377ZM7.61118 5.0915L6.63152 6.49602L4.13905 2.92245L7.61118 5.0915ZM11.03 7.50017L4.13905 11.8048L8.45366 5.61895L11.0299 7.22821C11.0745 7.25607 11.1022 7.30822 11.1022 7.36413C11.1022 7.42021 11.0744 7.47243 11.03 7.50017Z" fill="white"/>
<path d="M11.5077 6.31377L1.65477 0.158914C1.48491 0.0528779 1.29579 0 1.10667 0C1.10282 0 1.09903 0.000561039 1.09525 0.000561039C1.06983 0.000841559 1.04448 0.00224415 1.0192 0.00441818C1.00778 0.0054 0.996417 0.00673245 0.984997 0.00813504C0.965229 0.0105195 0.945527 0.013535 0.925892 0.0171117C0.918768 0.0184441 0.911583 0.018865 0.904459 0.0203377L0.904845 0.0208987C0.78208 0.0456545 0.662265 0.0929223 0.550927 0.163543C0.209911 0.379753 0 0.778023 0 1.20883V13.5185C0 13.9493 0.209911 14.3476 0.550927 14.5638C0.662205 14.6344 0.782014 14.6817 0.904779 14.7065L0.904459 14.707C0.910877 14.7083 0.917356 14.7087 0.923708 14.7099C0.944822 14.7138 0.966001 14.717 0.987241 14.7195C0.997894 14.7208 1.00848 14.722 1.01913 14.7229C1.0441 14.7251 1.069 14.7264 1.09403 14.7267C1.09826 14.7268 1.10243 14.7273 1.10667 14.7273C1.29579 14.7273 1.48491 14.6744 1.65477 14.5684L11.5077 8.41351C11.8522 8.19824 12.0648 7.79797 12.0648 7.36419C12.0648 7.36419 12.0648 7.364 12.0648 7.36394C12.0648 7.36394 12.0648 7.3637 12.0648 7.36364C12.0648 7.36364 12.0648 7.36345 12.0648 7.36333C12.0648 7.36333 12.0648 7.36314 12.0648 7.36308C12.0648 6.92937 11.8522 6.52909 11.5077 6.31377ZM7.61118 5.0915L6.63152 6.49602L4.13905 2.92245L7.61118 5.0915ZM11.03 7.50017L4.13905 11.8048L8.45366 5.61895L11.0299 7.22821C11.0745 7.25607 11.1022 7.30822 11.1022 7.36413C11.1022 7.42021 11.0744 7.47243 11.03 7.50017Z" fill="url(#paint0_linear)"/>
</g>
<defs>
<linearGradient id="paint0_linear" x1="6.03238" y1="0" x2="6.03238" y2="14.7273" gradientUnits="userSpaceOnUse">
<stop stop-color="white"/>
<stop offset="1" stop-color="white" stop-opacity="0"/>
</linearGradient>
<clipPath id="clip0">
<rect width="12.0648" height="14.7273" fill="white"/>
</clipPath>
</defs>
</svg>
