<svg width="28" height="28" viewBox="0 0 28 28" fill="none" xmlns="http://www.w3.org/2000/svg">
<g clip-path="url(#clip0)">
<path d="M10.1267 17.1102L10.4274 16.8401L14.1882 13.4633L8.58108 16.9717L8.19195 17.2152L7.75364 17.0789L2.42046 15.4201C2.42032 15.42 2.42018 15.42 2.42004 15.4199L2.41952 15.4198L2.71653 14.4649L10.1267 17.1102ZM10.1267 17.1102L10.098 17.5133L9.70895 22.9856L9.63281 24.0565H10.7064C11.1438 24.0565 11.5182 23.9584 11.8495 23.7674C12.1313 23.605 12.3455 23.3916 12.4764 23.2612C12.4815 23.2561 12.4865 23.2512 12.4913 23.2464M10.1267 17.1102L12.4913 23.2464M12.4913 23.2464L14.4881 21.338L19.2197 24.8031L19.2697 24.8397L19.3238 24.8698C19.9366 25.2114 20.7192 25.4404 21.4738 25.0986C22.2246 24.7585 22.5813 24.0184 22.7436 23.3061L22.7437 23.3061L22.7466 23.2927L26.2344 6.9495L12.4913 23.2464Z" stroke="#0B2A49" stroke-width="2"/>
</g>
<defs>
<clipPath id="clip0">
<rect width="28" height="28" fill="white"/>
</clipPath>
</defs>
</svg>
